<svg width="25" height="25" viewBox="0 0 25 25" fill="none" xmlns="http://www.w3.org/2000/svg">
<path d="M1.5 8.75H24M6.5 1.25V3.75M19 1.25V3.75M5.25 12.5H10.25V17.5H5.25V12.5ZM5.5 23.75H20C21.4001 23.75 22.1003 23.75 22.635 23.4775C23.1054 23.2379 23.4879 22.8554 23.7275 22.385C24 21.8503 24 21.1501 24 19.75V7.75C24 6.34986 24 5.6498 23.7275 5.11503C23.4879 4.64461 23.1054 4.26216 22.635 4.02249C22.1003 3.75 21.4001 3.75 20 3.75H5.5C4.09987 3.75 3.3998 3.75 2.86503 4.02249C2.39461 4.26216 2.01216 4.64461 1.77249 5.11503C1.5 5.6498 1.5 6.34986 1.5 7.75V19.75C1.5 21.1501 1.5 21.8503 1.77249 22.385C2.01216 22.8554 2.39461 23.2379 2.86503 23.4775C3.3998 23.75 4.09986 23.75 5.5 23.75Z" stroke="currentColor" stroke-width="2" stroke-linecap="round" stroke-linejoin="round"/>
</svg>
