<svg width="707" height="707" viewBox="0 0 707 707" fill="none" xmlns="http://www.w3.org/2000/svg">
<path d="M82.448 0.541748C103.831 0.541748 124.352 8.90193 139.641 23.8123L140.365 24.5271L354 238.161L567.743 24.4187L567.855 24.3103C583.305 9.38809 603.998 1.13051 625.477 1.31714C646.956 1.50379 667.504 10.1197 682.692 25.3083C697.881 40.4969 706.496 61.0433 706.682 82.5222C706.869 104.001 698.612 124.695 683.689 140.145L683.582 140.258L683.471 140.367L469.839 354L683.582 567.743L683.689 567.855C698.612 583.305 706.869 603.998 706.682 625.477C706.496 646.956 697.881 667.503 682.692 682.692C667.503 697.881 646.956 706.496 625.477 706.682C603.998 706.869 583.305 698.612 567.855 683.689L567.743 683.582L354 469.839L140.367 683.471L140.258 683.582L140.145 683.689C124.695 698.612 104.001 706.869 82.5222 706.682C61.0433 706.496 40.4969 697.881 25.3083 682.692C10.1197 667.504 1.50379 646.956 1.31714 625.477C1.13051 603.998 9.38809 583.305 24.3103 567.855L24.4187 567.743L238.161 354L24.5271 140.365C9.16949 125.003 0.541748 104.17 0.541748 82.448C0.541748 60.7258 9.16949 39.8933 24.5271 24.531L24.531 24.5271C39.8933 9.16949 60.7258 0.541748 82.448 0.541748Z" fill="currentColor"/>
</svg>
