<svg width="707" height="707" viewBox="0 0 707 707" fill="none" xmlns="http://www.w3.org/2000/svg">
<path d="M37.2 37.2C49.2018 25.2018 65.4775 18.4617 82.448 18.4617C99.4185 18.4617 115.694 25.2018 127.696 37.2L354 263.504L580.304 37.2C592.375 25.5419 608.541 19.091 625.322 19.2369C642.102 19.3827 658.154 26.1135 670.02 37.9796C681.887 49.8457 688.617 65.8977 688.763 82.6783C688.909 99.4589 682.458 115.625 670.8 127.696L444.496 354L670.8 580.304C682.458 592.375 688.909 608.541 688.763 625.322C688.617 642.102 681.887 658.154 670.02 670.02C658.154 681.887 642.102 688.617 625.322 688.763C608.541 688.909 592.375 682.458 580.304 670.8L354 444.496L127.696 670.8C115.625 682.458 99.4589 688.909 82.6783 688.763C65.8977 688.617 49.8457 681.887 37.9796 670.02C26.1135 658.154 19.3827 642.102 19.2369 625.322C19.091 608.541 25.5419 592.375 37.2 580.304L263.504 354L37.2 127.696C25.2018 115.694 18.4617 99.4185 18.4617 82.448C18.4617 65.4775 25.2018 49.2018 37.2 37.2Z" fill="currentColor" stroke="currentColor" stroke-width="35.84"/>
</svg>
