<svg width="18" height="18" viewBox="0 0 18 18" fill="none" xmlns="http://www.w3.org/2000/svg">
<path d="M17.1818 3.27261H13.0909V0.81806C13.0909 0.601064 13.0047 0.392957 12.8513 0.239518C12.6978 0.0860789 12.4897 -0.00012207 12.2727 -0.00012207H5.72727C5.51028 -0.00012207 5.30217 0.0860789 5.14873 0.239518C4.99529 0.392957 4.90909 0.601064 4.90909 0.81806V3.27261H0.818182C0.601187 3.27261 0.393079 3.35881 0.23964 3.51225C0.086201 3.66568 0 3.87379 0 4.09079C0 4.30778 0.086201 4.51589 0.23964 4.66933C0.393079 4.82277 0.601187 4.90897 0.818182 4.90897H1.73209L3.27927 17.2832C3.304 17.481 3.40011 17.663 3.54957 17.795C3.69902 17.927 3.89152 17.9998 4.09091 17.9999H13.9091C14.1085 17.9998 14.301 17.927 14.4504 17.795C14.5999 17.663 14.696 17.481 14.7207 17.2832L16.2679 4.90897H17.1818C17.3988 4.90897 17.6069 4.82277 17.7604 4.66933C17.9138 4.51589 18 4.30778 18 4.09079C18 3.87379 17.9138 3.66568 17.7604 3.51225C17.6069 3.35881 17.3988 3.27261 17.1818 3.27261ZM6.54545 1.63624H11.4545V3.27261H6.54545V1.63624ZM13.1866 16.3635H4.81336L3.38155 4.90897H14.6185L13.1866 16.3635Z" fill="currentColor" stroke-width="0.00024"/>
</svg>
