<svg width="18" height="18" viewBox="0 0 18 18" fill="none" xmlns="http://www.w3.org/2000/svg">
<path fill-rule="evenodd" clip-rule="evenodd" d="M17.0628 0.784055C16.0173 -0.261388 14.3224 -0.261397 13.2769 0.784055L11.778 2.28301L4.72308 9.33784C4.60871 9.45224 4.52759 9.59555 4.48836 9.75242L3.59602 13.3218C3.51999 13.6259 3.60909 13.9476 3.83073 14.1692C4.05237 14.3908 4.37405 14.48 4.67815 14.4039L8.24749 13.5116C8.40445 13.4723 8.54767 13.3912 8.66207 13.2768L15.6656 6.27332L17.2159 4.72305C18.2614 3.6776 18.2614 1.9826 17.2159 0.937154L17.0628 0.784055ZM14.5389 2.04602C14.8873 1.69754 15.4524 1.69754 15.8008 2.04602L15.9539 2.19912C16.3024 2.5476 16.3024 3.11261 15.9539 3.46109L15.0469 4.36817L13.6589 2.92597L14.5389 2.04602ZM12.3967 4.18817L13.7847 5.63036L7.57493 11.8401L5.68813 12.3118L6.15981 10.4251L12.3967 4.18817ZM1.78469 5.50713C1.78469 5.01431 2.18421 4.61479 2.67703 4.61479H7.13875C7.63159 4.61479 8.03109 4.21528 8.03109 3.72244C8.03109 3.22962 7.63159 2.8301 7.13875 2.8301H2.67703C1.19855 2.8301 0 4.02865 0 5.50713V15.3229C0 16.8014 1.19855 17.9999 2.67703 17.9999H12.4928C13.9713 17.9999 15.1698 16.8014 15.1698 15.3229V10.8612C15.1698 10.3684 14.7703 9.96881 14.2775 9.96881C13.7847 9.96881 13.3852 10.3684 13.3852 10.8612V15.3229C13.3852 15.8157 12.9857 16.2152 12.4928 16.2152H2.67703C2.18421 16.2152 1.78469 15.8157 1.78469 15.3229V5.50713Z" fill="currentColor" stroke-width="0.00024"/>
</svg>
