<svg width="32" height="37" viewBox="0 0 32 37" fill="none" xmlns="http://www.w3.org/2000/svg">
<path d="M24.2829 10.4058C24.6521 10.0365 24.8594 9.53577 24.8594 9.01362C24.8593 8.49148 24.6518 7.99075 24.2826 7.62156L17.392 0.7327C17.0228 0.363545 16.5221 0.156158 16 0.156158C15.4779 0.156158 14.9772 0.363545 14.608 0.7327L7.71741 7.62156C7.34815 7.99074 7.14067 8.49148 7.14061 9.01362C7.14055 9.53577 7.34791 10.0366 7.71709 10.4058C8.08626 10.7751 8.587 10.9826 9.10915 10.9826C9.6313 10.9827 10.1321 10.7753 10.5013 10.4061L14.0312 6.87715V20.5C14.0312 21.0221 14.2387 21.5229 14.6079 21.8921C14.9771 22.2613 15.4779 22.4687 16 22.4687C16.5221 22.4687 17.0229 22.2613 17.3921 21.8921C17.7613 21.5229 17.9688 21.0221 17.9688 20.5V6.87715L21.4987 10.4061C21.8679 10.7753 22.3687 10.9826 22.8909 10.9826C23.413 10.9825 23.9137 10.7751 24.2829 10.4058ZM4.1875 13.9375H8.125C8.64714 13.9375 9.1479 14.1449 9.51711 14.5141C9.88633 14.8833 10.0938 15.3841 10.0938 15.9062C10.0938 16.4284 9.88633 16.9291 9.51711 17.2984C9.1479 17.6676 8.64714 17.875 8.125 17.875H4.84375V32.9687H27.1562V17.875H23.875C23.3529 17.875 22.8521 17.6676 22.4829 17.2984C22.1137 16.9291 21.9062 16.4284 21.9062 15.9062C21.9062 15.3841 22.1137 14.8833 22.4829 14.5141C22.8521 14.1449 23.3529 13.9375 23.875 13.9375H27.8125C28.6824 13.9385 29.5165 14.2845 30.1316 14.8996C30.7468 15.5148 31.0928 16.3488 31.0938 17.2187V33.625C31.0928 34.4949 30.7468 35.329 30.1316 35.9441C29.5165 36.5592 28.6824 36.9053 27.8125 36.9062H4.1875C3.31756 36.9053 2.48353 36.5592 1.86839 35.9441C1.25325 35.329 0.907232 34.4949 0.90625 33.625V17.2187C0.907232 16.3488 1.25325 15.5148 1.86839 14.8996C2.48353 14.2845 3.31756 13.9385 4.1875 13.9375Z" fill="currentColor" stroke-width="0.00256"/>
</svg>
